<mxfile host="app.diagrams.net" modified="2023-08-03T06:18:47.820Z" agent="Mozilla/5.0 (Macintosh; Intel Mac OS X 10_15_7) AppleWebKit/537.36 (KHTML, like Gecko) Chrome/115.0.0.0 Safari/537.36" etag="RK7CCuKq0Bbzv6M0ObQr" version="21.6.6" type="github">
  <diagram name="第 1 页" id="6svsY7AYi6eWxs9cwY4M">
    <mxGraphModel dx="1383" dy="749" grid="1" gridSize="10" guides="1" tooltips="1" connect="1" arrows="1" fold="1" page="1" pageScale="1" pageWidth="827" pageHeight="1169" math="0" shadow="0">
      <root>
        <mxCell id="0" />
        <mxCell id="1" parent="0" />
        <mxCell id="Q9n9RzVUkL-zmo0aZs2l-6" style="edgeStyle=orthogonalEdgeStyle;rounded=0;orthogonalLoop=1;jettySize=auto;html=1;exitX=0;exitY=1;exitDx=0;exitDy=0;entryX=0.621;entryY=-0.004;entryDx=0;entryDy=0;entryPerimeter=0;" edge="1" parent="1" source="Q9n9RzVUkL-zmo0aZs2l-1" target="Q9n9RzVUkL-zmo0aZs2l-3">
          <mxGeometry relative="1" as="geometry" />
        </mxCell>
        <mxCell id="Q9n9RzVUkL-zmo0aZs2l-8" style="edgeStyle=orthogonalEdgeStyle;rounded=0;orthogonalLoop=1;jettySize=auto;html=1;exitX=1;exitY=1;exitDx=0;exitDy=0;" edge="1" parent="1" source="Q9n9RzVUkL-zmo0aZs2l-1" target="Q9n9RzVUkL-zmo0aZs2l-2">
          <mxGeometry relative="1" as="geometry">
            <Array as="points">
              <mxPoint x="370" y="250" />
            </Array>
          </mxGeometry>
        </mxCell>
        <mxCell id="Q9n9RzVUkL-zmo0aZs2l-12" style="edgeStyle=orthogonalEdgeStyle;rounded=0;orthogonalLoop=1;jettySize=auto;html=1;exitX=0.25;exitY=1;exitDx=0;exitDy=0;entryX=0.088;entryY=0.146;entryDx=0;entryDy=0;entryPerimeter=0;" edge="1" parent="1" source="Q9n9RzVUkL-zmo0aZs2l-1" target="Q9n9RzVUkL-zmo0aZs2l-2">
          <mxGeometry relative="1" as="geometry" />
        </mxCell>
        <mxCell id="Q9n9RzVUkL-zmo0aZs2l-1" value="算法化石分布步办法宿风" style="whiteSpace=wrap;html=1;aspect=fixed;" vertex="1" parent="1">
          <mxGeometry x="240" y="150" width="100" height="100" as="geometry" />
        </mxCell>
        <mxCell id="Q9n9RzVUkL-zmo0aZs2l-2" value="" style="ellipse;whiteSpace=wrap;html=1;aspect=fixed;" vertex="1" parent="1">
          <mxGeometry x="330" y="300" width="80" height="80" as="geometry" />
        </mxCell>
        <mxCell id="Q9n9RzVUkL-zmo0aZs2l-3" value="" style="ellipse;whiteSpace=wrap;html=1;aspect=fixed;" vertex="1" parent="1">
          <mxGeometry x="160" y="320" width="80" height="80" as="geometry" />
        </mxCell>
        <mxCell id="Q9n9RzVUkL-zmo0aZs2l-4" value="" style="shape=cylinder3;whiteSpace=wrap;html=1;boundedLbl=1;backgroundOutline=1;size=15;" vertex="1" parent="1">
          <mxGeometry x="530" y="280" width="60" height="80" as="geometry" />
        </mxCell>
        <mxCell id="Q9n9RzVUkL-zmo0aZs2l-5" value="" style="endArrow=none;html=1;rounded=0;" edge="1" parent="1">
          <mxGeometry width="50" height="50" relative="1" as="geometry">
            <mxPoint x="390" y="320" as="sourcePoint" />
            <mxPoint x="440" y="270" as="targetPoint" />
          </mxGeometry>
        </mxCell>
        <mxCell id="Q9n9RzVUkL-zmo0aZs2l-7" value="" style="endArrow=none;html=1;rounded=0;" edge="1" parent="1">
          <mxGeometry width="50" height="50" relative="1" as="geometry">
            <mxPoint x="390" y="320" as="sourcePoint" />
            <mxPoint x="440" y="270" as="targetPoint" />
          </mxGeometry>
        </mxCell>
        <mxCell id="Q9n9RzVUkL-zmo0aZs2l-9" value="" style="endArrow=none;html=1;rounded=0;" edge="1" parent="1">
          <mxGeometry width="50" height="50" relative="1" as="geometry">
            <mxPoint x="390" y="320" as="sourcePoint" />
            <mxPoint x="440" y="270" as="targetPoint" />
          </mxGeometry>
        </mxCell>
        <mxCell id="Q9n9RzVUkL-zmo0aZs2l-10" value="" style="endArrow=none;html=1;rounded=0;exitX=1.017;exitY=0.423;exitDx=0;exitDy=0;exitPerimeter=0;entryX=0.017;entryY=0.096;entryDx=0;entryDy=0;entryPerimeter=0;" edge="1" parent="1" source="Q9n9RzVUkL-zmo0aZs2l-1" target="Q9n9RzVUkL-zmo0aZs2l-4">
          <mxGeometry width="50" height="50" relative="1" as="geometry">
            <mxPoint x="410" y="240" as="sourcePoint" />
            <mxPoint x="460" y="190" as="targetPoint" />
          </mxGeometry>
        </mxCell>
        <mxCell id="Q9n9RzVUkL-zmo0aZs2l-11" value="" style="endArrow=none;html=1;rounded=0;exitX=1;exitY=0.5;exitDx=0;exitDy=0;entryX=0;entryY=0.5;entryDx=0;entryDy=0;entryPerimeter=0;" edge="1" parent="1" source="Q9n9RzVUkL-zmo0aZs2l-2" target="Q9n9RzVUkL-zmo0aZs2l-4">
          <mxGeometry width="50" height="50" relative="1" as="geometry">
            <mxPoint x="450" y="400" as="sourcePoint" />
            <mxPoint x="500" y="350" as="targetPoint" />
            <Array as="points" />
          </mxGeometry>
        </mxCell>
      </root>
    </mxGraphModel>
  </diagram>
</mxfile>
